Coordinates
version=1
nRows=19
nColumns=33
inDegrees=yes

Units are S.I. units (second, meters, Newtons, ...)
Angles are in degrees.

endheader
time	ground_thorax_rot_x	ground_thorax_rot_y	ground_thorax_rot_z	ground_thorax_tx	ground_thorax_ty	ground_thorax_tz	clav_prot_r	clav_elev_r	scapula_abduction_r	scapula_elevation_r	scapula_upward_rot_r	scapula_winging_r	shoulder_elv_r	plane_of_elev_r	axial_rot_r	elbow_flexion_r	pro_sup_r	wrist_flex_r	wrist_dev_r	clav_prot_l	clav_elev_l	scapula_abduction_l	scapula_elevation_l	scapula_upward_rot_l	scapula_winging_l	shoulder_elv_l	plane_of_elev_l	axial_rot_l	elbow_flexion_l	pro_sup_l	wrist_flex_l	wrist_dev_l
      4.69000000	     35.07874182	     12.89645219	     20.80774062	   -227.92921412	    816.58945714	     -2.18924442	     17.73899505	     45.00000000	     45.00000000	     45.00000000	     45.00000000	   3214.78942445	  -1620.71820326	    -90.00000000	    -99.61144983	   1799.09259317	    215.29097594	     19.27308532	     13.10641809	     10.95649521	    -45.00000000	    -39.24827811	     45.00000000	    -39.78887110	  -2780.30342803	   -453.75972791	    136.81056184	    179.99999979	   1807.27764653	     22.90061535	      7.91910391	    -22.28006272
      4.70000000	     35.10203277	     12.83047205	     20.82589643	   -225.85933525	    816.93232128	     -2.27436629	     17.64932487	     45.00000000	     45.00000000	     45.00000000	     45.00000000	   3214.72306153	  -1622.50382749	    -90.00000000	    -99.58083589	   1798.45624246	    214.58178136	     19.35141197	     13.06259459	     11.01419242	    -45.00000000	    -39.42646046	     45.00000000	    -39.25600956	  -2780.43526783	   -453.80277114	    136.77169174	    179.99999979	   1807.26306968	     22.58894782	      8.04181363	    -22.23034402
      4.71000000	     35.05161364	     12.81373474	     20.96662564	   -223.62224059	    817.28923398	     -2.32654671	     17.59001893	     45.00000000	     45.00000000	     45.00000000	     45.00000000	   3214.63214512	  -1624.77761919	    -89.92003140	    -99.78825179	   1797.82123284	    213.87051331	     19.43543253	     13.08287919	     11.12368527	    -45.00000000	    -39.60979163	     45.00000000	    -38.97203398	  -2780.34014438	   -453.75865311	    136.50469212	    179.99999979	   1807.28398137	     22.20032239	      8.16979677	    -22.16624143
      4.72000000	     36.63428836	      9.43830267	     18.04997202	   -221.21415766	    817.65707758	     -2.38397371	     15.61304251	     37.99112773	     38.89364959	     45.00000000	    -45.00000000	   3153.04151782	  -1728.89933128	     32.38686798	     54.44495813	   1824.84728375	    150.76517102	     12.63110692	      4.50821589	      9.39346041	    -45.00000000	    -38.48436676	     45.00000000	    -35.46324912	  -2781.50034325	   -454.31683058	    136.92991361	    179.99999979	   1807.41465392	     20.73876753	      8.82134312	    -22.04862822
      4.73000000	     36.65443491	      9.19781264	     17.96426423	   -218.63540858	    818.01074454	     -2.38981754	     15.89115142	     38.04669953	     39.17777641	     45.00000000	    -45.00000000	   3153.06717872	  -1728.84502569	     32.52879268	     53.92101888	   1824.94916322	    150.92221844	     12.69755837	      4.42736538	      9.40191292	    -45.00000000	    -38.66154395	     45.00000000	    -34.75220502	  -2781.62802822	   -454.33378740	    136.89661592	    179.99999979	   1807.42896760	     20.19735697	      8.90584708	    -21.98074103
      4.74000000	     36.66027660	      9.00545925	     17.87842990	   -215.88792420	    818.34425271	     -2.38051792	     15.94754277	     38.07516039	     39.41010160	     45.00000000	    -45.00000000	   3153.07699400	  -1728.77473842	     32.66506079	     53.36698827	   1824.99929850	    151.26330964	     12.63378407	      4.39998805	      9.40056987	    -45.00000000	    -38.93042813	     45.00000000	    -33.97828194	  -2781.72944076	   -454.36357190	    136.84984388	    179.99999979	   1807.45705165	     19.58824021	      9.11597705	    -21.85744592
      4.75000000	     36.66089664	      8.81092736	     17.81174265	   -212.96956711	    818.64350186	     -2.36274224	     15.96955921	     38.08446278	     39.64014685	     45.00000000	    -45.00000000	   3153.10295058	  -1728.69996327	     32.81385923	     52.78787602	   1825.04931346	    151.75945279	     12.55724436	      4.37917889	      9.40451391	    -45.00000000	    -39.19800848	     45.00000000	    -33.22743335	  -2781.85009919	   -454.41465954	    136.79041815	    179.99999979	   1807.45036738	     18.95687512	      9.34983121	    -21.70883746
      4.76000000	     36.61219376	      8.59205348	     17.77200690	   -209.87828759	    818.89439541	     -2.34338512	     16.09571056	     38.14364128	     39.87214305	     45.00000000	    -45.00000000	   3153.25054239	  -1728.61448013	     32.90943290	     52.23126402	   1825.09899012	    152.41235961	     12.45863777	      4.38138700	      9.34507990	    -45.00000000	    -39.49885130	     45.00000000	    -32.18199828	  -2781.95685315	   -454.47767809	    136.89994546	    179.99999979	   1807.50468904	     18.27290704	      9.64810883	    -21.56517067
      4.77000000	     36.58724195	      8.38125147	     17.70147485	   -206.61408950	    819.08415570	     -2.32964029	     16.20186653	     38.18326338	     40.14432165	     45.00000000	    -45.00000000	   3153.35863502	  -1728.55158964	     33.01948676	     51.67284120	   1825.12437787	    153.21809739	     12.36104852	      4.38134277	      9.30381670	    -45.00000000	    -39.80886538	     45.00000000	    -31.21097535	  -2782.09347186	   -454.58277066	    136.93157516	    179.99999979	   1807.48271020	     17.65262844	      9.92333698	    -21.39211976
      4.78000000	     36.54123895	      8.14045449	     17.63354893	   -203.17471562	    819.20052793	     -2.32876346	     16.31157211	     38.18575020	     40.44949443	     45.00000000	    -45.00000000	   3153.51556518	  -1728.50661616	     33.07993123	     51.09148842	   1825.16692791	    154.24033881	     12.22881122	      4.43672274	      9.22015492	    -45.00000000	    -40.12827958	     45.00000000	    -30.03418126	  -2782.19377705	   -454.71778541	    136.99299117	    179.99999979	   1807.42591344	     17.09819357	     10.27092242	    -21.21475824
      4.79000000	     36.50635276	      7.94942004	     17.56451371	   -199.55512542	    819.23408192	     -2.34643430	     16.43671985	     38.25722847	     40.73593121	     45.00000000	    -45.00000000	   3153.59516823	  -1728.46647817	     33.23064569	     50.55968751	   1825.18398108	    155.30444046	     12.12869790	      4.41499758	      9.21289785	    -45.00000000	    -40.47088087	     45.00000000	    -29.16187586	  -2782.34519191	   -454.81711735	    136.99315229	    179.99999979	   1807.41778429	     16.70312879	     10.45088936	    -21.03595652
      4.80000000	     36.42811661	      7.75008673	     17.54415401	   -195.75419576	    819.17324713	     -2.38904854	     16.53345744	     38.28929303	     41.01364666	     45.00000000	    -45.00000000	   3153.66371414	  -1728.52549778	     33.44107899	     50.00541759	   1825.19483937	    156.40470961	     12.01720521	      4.40845334	      9.21852017	    -45.00000000	    -40.75948039	     45.00000000	    -28.26933990	  -2782.44182095	   -454.89434254	    136.94905571	    179.99999979	   1807.42321292	     16.43891332	     10.61311702	    -20.86454430
      4.81000000	     36.35999913	      7.62620588	     17.56873967	   -191.76566979	    819.01023963	     -2.45842665	     16.69847298	     38.28293560	     41.27501263	     45.00000000	    -45.00000000	   3153.81438535	  -1728.48659053	     33.54800342	     49.36158344	   1825.18542038	    157.61351698	     11.86867527	      4.46729470	      9.12604413	    -45.00000000	    -41.14509782	     45.00000000	    -27.17138152	  -2782.58418892	   -455.11187452	    137.06892610	    179.99999979	   1807.38431314	     16.31942714	     10.86836653	    -20.70031799
      4.82000000	     36.27231899	      7.44128215	     17.55253950	   -187.56005031	    818.72240189	     -2.57256371	     16.69688436	     38.39542140	     41.58552447	     45.00000000	    -44.99092559	   3153.95574629	  -1728.51919599	     33.74426016	     48.79162481	   1825.16487444	    158.71811478	     11.75696888	      4.38962236	      9.10117585	    -45.00000000	    -41.45235457	     45.00000000	    -26.16745336	  -2782.75310950	   -455.21626307	    137.10436825	    179.99999979	   1807.34960638	     16.32212362	     11.00412319	    -20.52785590
      4.83000000	     36.25362995	      7.11366876	     17.24826182	   -183.15988099	    818.31198430	     -2.72011788	     16.78753690	     38.54001941	     41.78406215	     45.00000000	    -44.05506199	   3154.25012844	  -1728.68007439	     33.58207137	     48.15523180	   1825.13788032	    159.81973448	     11.61831203	      4.33966710	      8.93688130	    -45.00000000	    -41.90321449	     45.00000000	    -24.60711298	  -2782.87093763	   -455.46588866	    137.14310289	    179.99999979	   1807.27349902	     16.46817348	     11.29820900	    -20.36628991
      4.84000000	     36.25269991	      6.81983278	     17.00911642	   -178.59162090	    817.78467763	     -2.88488966	     16.89370117	     38.69150650	     41.99933551	     45.00000000	    -43.31834158	   3154.47467863	  -1728.80320861	     33.56622913	     47.33134323	   1825.08632929	    160.85026759	     11.50091247	      4.21249077	      8.85831636	    -45.00000000	    -42.27802690	     45.00000000	    -23.29036656	  -2783.03959613	   -455.71599558	    137.15200636	    179.99999979	   1807.19350084	     16.76952542	     11.46251013	    -20.20945401
      4.85000000	     36.18491284	      6.64797063	     16.89883615	   -173.91827264	    817.16029599	     -3.03330455	     16.90435007	     38.96659910	     42.21723435	     45.00000000	    -42.69916959	   3154.53843737	  -1729.05327817	     33.73600386	     46.82724263	   1824.99147386	    161.72333061	     11.44960180	      3.92660744	      8.85633954	    -45.00000000	    -42.65097981	     45.00000000	    -22.38001845	  -2783.32107407	   -455.91690448	    137.24166225	    179.99999979	   1807.19529025	     17.12145477	     11.37729700	    -20.06041244
      4.86000000	     36.15899565	      6.26309528	     16.58922719	   -169.14638692	    816.42873731	     -3.16119082	     17.03513723	     39.08278133	     42.48600741	     45.00000000	    -41.95996978	   3154.86542815	  -1729.15229024	     33.69111454	     45.98193326	   1825.01855805	    162.91731375	     11.30189551	      3.84635707	      8.73256590	    -45.00000000	    -43.15208555	     45.00000000	    -20.72688946	  -2783.36575618	   -456.21510530	    137.25194518	    179.99999979	   1807.05502775	     17.67084871	     11.56187406	    -19.91763004
      4.87000000	     36.11697767	      5.94012441	     16.32999591	   -164.29978172	    815.59202809	     -3.25456911	     17.10967514	     39.24763335	     42.74596577	     45.00000000	    -41.22849345	   3155.11496909	  -1729.31025818	     33.71360582	     45.56906527	   1825.03306878	    164.33901006	     11.15481293	      3.79727402	      8.65951948	    -45.00000000	    -43.60736923	     45.00000000	    -19.32566701	  -2783.50207976	   -456.51842456	    137.27544427	    179.99999979	   1806.90531931	     18.33880517	     11.62725207	    -19.78581826
